<?xml version="1.0" standalone="no"?>
<!DOCTYPE svg PUBLIC "-//W3C//DTD SVG 20010904//EN"
 "http://www.w3.org/TR/2001/REC-SVG-20010904/DTD/svg10.dtd">
<svg version="1.0" xmlns="http://www.w3.org/2000/svg"
 width="512.000000pt" height="512.000000pt" viewBox="0 0 512.000000 512.000000"
 preserveAspectRatio="xMidYMid meet">

<g transform="translate(0.000000,512.000000) scale(0.100000,-0.100000)"
fill="#000000" stroke="none">
<path d="M2125 3886 c-146 -36 -212 -63 -196 -79 7 -7 7 -14 0 -23 -5 -6 17
-1 50 12 33 14 86 29 118 35 56 11 212 7 263 -6 21 -5 22 -5 7 5 -9 6 -14 16
-11 22 4 6 0 14 -7 19 -10 6 -5 9 16 9 21 0 26 3 16 9 -11 7 -10 11 5 20 43
24 -130 10 -261 -23z"/>
<path d="M2120 3804 c-127 -25 -262 -103 -355 -207 -57 -64 -122 -184 -149
-275 -13 -46 -13 -57 -1 -93 30 -85 19 -121 -78 -256 -37 -51 -67 -95 -67 -98
0 -2 17 -13 39 -24 55 -28 70 -69 48 -130 -17 -46 -17 -46 8 -66 29 -24 31
-41 9 -66 -15 -17 -15 -20 9 -48 34 -41 41 -79 23 -132 -36 -102 -13 -139 92
-148 39 -4 74 -9 77 -13 9 -9 -102 -20 -135 -13 -40 9 -80 58 -80 98 0 18 6
53 14 78 17 56 11 91 -20 120 -28 26 -30 46 -8 70 14 16 14 19 -10 34 -30 20
-32 38 -10 90 21 51 8 79 -51 107 -25 12 -45 27 -45 33 0 7 36 63 80 126 89
126 94 147 69 246 -10 35 -8 52 11 110 28 83 61 151 109 223 49 73 58 89 40
73 -16 -15 -33 -17 -24 -3 15 24 -11 7 -42 -27 -44 -50 -106 -171 -133 -260
-20 -66 -21 -78 -9 -124 13 -49 13 -51 -11 -70 l-25 -19 23 0 c12 0 22 -4 22
-9 0 -5 -36 -60 -80 -122 -49 -70 -80 -124 -80 -140 0 -28 28 -58 78 -83 36
-19 38 -24 17 -52 -18 -24 -19 -88 -1 -103 9 -8 12 -24 9 -50 -4 -32 0 -43 28
-75 l32 -38 -16 -46 c-19 -52 -22 -114 -7 -141 7 -14 0 -39 -25 -100 l-34 -81
58 0 c57 0 58 1 53 25 -3 16 -11 25 -23 25 -18 0 -19 2 -5 27 12 25 20 27 75
29 37 2 59 -1 55 -7 -3 -5 -2 -9 3 -8 4 1 36 1 71 0 59 -1 62 -2 52 -20 -8
-15 -23 -21 -63 -23 -46 -3 -52 -6 -53 -25 -1 -22 2 -23 71 -23 l73 0 18 50
c10 28 21 50 24 50 17 0 100 -61 118 -88 52 -72 81 -190 82 -324 l1 -63 25 49
c25 47 25 51 14 132 -20 156 -79 267 -163 311 -16 8 -27 17 -24 19 11 11 85
-36 124 -78 45 -50 80 -132 89 -213 7 -59 16 -68 35 -33 30 57 -23 218 -97
292 -73 72 -188 105 -372 106 -38 0 -54 4 -59 15 -3 9 5 52 17 95 l23 79 -27
31 c-23 27 -26 41 -26 101 0 42 -4 69 -11 69 -6 0 -9 12 -7 28 2 21 8 27 28
27 20 0 26 -6 28 -27 2 -16 -1 -28 -7 -28 -7 0 -11 -27 -11 -68 0 -56 4 -72
20 -87 11 -10 22 -16 24 -14 1 2 16 29 32 59 61 117 200 221 332 249 30 6 148
11 273 11 235 0 263 5 306 51 12 13 27 45 34 70 14 53 11 63 -104 402 -63 186
-75 214 -113 257 -58 63 -121 90 -234 97 -84 6 -89 5 -124 -22 -20 -15 -36
-35 -36 -45 0 -23 -24 -42 -44 -34 -9 3 -16 14 -16 24 0 20 27 46 37 36 4 -3
24 11 45 31 l39 38 102 0 c89 0 109 -3 157 -26 64 -30 112 -75 141 -132 37
-71 189 -544 189 -585 0 -48 -21 -101 -53 -136 -47 -50 -79 -56 -304 -56 -114
0 -237 -5 -273 -10 -180 -29 -313 -157 -380 -367 -17 -51 -30 -95 -30 -98 0
-3 33 -5 73 -5 227 -1 352 -66 427 -224 16 -32 32 -76 35 -98 7 -38 7 -39 27
-22 24 22 17 76 -17 144 -77 152 -209 240 -359 240 -28 0 -68 3 -88 6 l-37 6
25 67 c65 171 167 266 322 300 30 6 145 11 266 11 246 0 279 7 344 73 45 46
72 109 72 169 0 46 -159 528 -199 603 -35 66 -134 149 -203 170 -54 17 -192
28 -238 19z m321 -81 c13 -16 12 -17 -3 -4 -10 7 -18 15 -18 17 0 8 8 3 21
-13z m-494 -59 c3 -9 1 -25 -5 -35 -15 -23 -16 -169 -2 -169 6 0 10 11 10 25
0 34 18 32 23 -2 3 -21 4 -17 6 13 0 22 -4 45 -10 51 -18 18 -2 45 23 41 23
-3 40 -48 19 -48 -6 0 -11 -18 -11 -40 0 -22 5 -40 10 -40 6 0 10 11 10 25 0
14 5 25 10 25 6 0 10 -11 10 -25 0 -14 5 -25 10 -25 6 0 10 20 10 45 0 25 -4
45 -10 45 -5 0 -10 11 -10 24 0 30 30 43 46 21 11 -15 13 -14 19 4 7 22 49 30
60 11 3 -5 29 -10 56 -10 62 0 108 -19 141 -58 31 -37 204 -552 194 -578 -4
-9 -9 -14 -12 -11 -4 3 -46 124 -95 268 -49 144 -98 276 -108 293 -11 17 -33
39 -49 49 -38 21 -109 22 -133 1 -14 -12 -22 -13 -38 -4 -50 26 -74 -72 -26
-104 14 -9 25 -23 25 -31 0 -21 78 -20 101 1 23 20 49 12 49 -16 0 -24 -23
-36 -47 -24 -29 13 -103 11 -103 -3 0 -13 15 -16 85 -17 33 -1 41 -5 43 -22 4
-27 -25 -40 -47 -20 -21 18 -81 31 -81 17 0 -6 9 -11 20 -11 11 0 20 -4 20
-10 0 -5 -9 -10 -20 -10 -11 0 -20 -5 -20 -11 0 -8 16 -10 50 -5 40 5 52 4 56
-9 4 -8 1 -22 -6 -30 -11 -14 -15 -14 -36 0 -26 17 -64 20 -64 5 0 -5 9 -10
21 -10 12 0 17 -4 14 -11 -4 -6 -13 -8 -21 -5 -8 3 -14 -1 -14 -9 0 -14 43
-15 57 -2 3 4 16 7 29 7 23 0 34 -16 26 -37 -5 -15 -52 -18 -52 -3 0 6 -13 10
-29 10 -21 0 -30 -6 -34 -21 -3 -11 -15 -23 -27 -26 -19 -5 -21 -12 -18 -62 3
-50 6 -57 31 -69 32 -15 36 -48 7 -57 -28 -9 -43 3 -36 30 4 15 1 25 -9 29
-11 4 -15 23 -16 68 -1 35 -4 51 -6 36 -5 -35 -23 -37 -23 -3 0 14 -4 25 -10
25 -6 0 -10 -40 -10 -99 0 -56 4 -103 10 -106 15 -9 12 -42 -5 -49 -19 -7 -46
20 -39 39 4 8 9 15 13 15 3 0 5 30 5 68 -3 106 -6 139 -11 117 -8 -34 -23 -41
-23 -12 0 15 -4 27 -10 27 -16 0 -12 -56 5 -70 9 -7 15 -29 15 -54 0 -35 -6
-48 -35 -76 -19 -19 -34 -39 -34 -44 3 -28 -3 -36 -27 -36 -22 0 -25 4 -22 28
2 19 9 28 24 30 58 8 102 106 64 140 -12 10 -20 29 -20 49 0 18 -4 33 -10 33
-16 0 -12 -76 5 -90 27 -22 16 -46 -54 -114 -57 -55 -74 -66 -94 -61 -15 4
-28 1 -36 -9 -17 -20 -35 -20 -51 0 -11 12 -10 18 4 32 13 14 20 14 36 4 39
-24 64 -14 129 52 62 62 63 65 48 87 -10 13 -14 32 -11 45 3 12 1 31 -5 41 -9
15 -10 12 -11 -18 0 -23 -7 -42 -20 -54 -11 -10 -20 -26 -20 -35 0 -24 -26
-32 -44 -14 -18 17 -11 44 12 44 26 0 52 31 52 62 0 21 -5 28 -20 28 -12 0
-20 -7 -20 -16 0 -15 -30 -47 -125 -133 -21 -19 -41 -46 -44 -60 -10 -37 -56
-38 -56 -1 0 18 6 26 21 28 11 2 40 23 64 47 25 25 49 45 56 45 6 0 19 9 29
20 10 11 13 20 8 20 -16 0 -25 31 -12 46 6 7 20 14 32 16 12 2 23 11 25 21 4
20 -37 24 -67 5 -22 -14 -51 -4 -51 17 0 21 29 31 51 17 27 -17 69 -15 69 3 0
8 -9 15 -20 15 -11 0 -29 5 -40 12 -15 9 -24 9 -43 -1 -29 -16 -47 -8 -47 20
0 23 27 36 43 20 6 -6 21 -11 33 -11 13 0 26 -4 29 -10 3 -5 15 -10 26 -10 10
0 19 5 19 10 0 6 -9 10 -20 10 -11 0 -20 5 -20 10 0 6 9 10 20 10 11 0 20 5
20 10 0 13 -53 13 -66 0 -17 -17 -44 0 -44 26 0 19 5 24 24 24 14 0 28 -4 31
-10 8 -12 55 -13 55 -1 0 5 -9 7 -20 4 -11 -3 -20 0 -20 6 0 6 9 11 20 11 11
0 20 6 20 14 0 11 -8 12 -37 5 -21 -5 -45 -9 -54 -9 -23 0 -33 30 -16 47 14
14 47 8 47 -8 0 -5 13 -9 29 -9 22 0 30 6 35 25 4 14 13 25 21 25 18 0 20 42
3 69 -15 24 -4 51 22 51 26 0 37 -27 22 -51 -15 -23 -16 -69 -2 -69 6 0 10 12
10 27 0 29 15 22 23 -12 3 -11 5 18 6 66 1 51 -3 89 -10 96 -7 7 -9 19 -6 27
8 21 46 20 54 0z m409 -15 c30 -14 60 -40 77 -64 16 -24 63 -145 113 -295 67
-200 84 -263 80 -294 -2 -21 -9 -43 -15 -49 -8 -8 -10 -3 -6 18 8 40 -165 554
-202 603 -33 44 -91 69 -176 78 -50 5 -67 11 -67 22 0 24 136 11 196 -19z
m-146 -144 c8 -9 30 -15 56 -15 24 0 44 -4 44 -10 0 -5 -18 -10 -40 -10 -22 0
-49 -5 -59 -12 -10 -6 -26 -8 -35 -5 -19 7 -22 53 -3 60 20 9 24 8 37 -8z
m213 -358 c42 -128 77 -236 77 -240 0 -4 -74 -7 -165 -7 -91 0 -165 2 -165 4
0 2 34 100 76 218 42 117 78 223 81 236 3 12 8 22 12 22 3 0 41 -105 84 -233z
m-633 -301 c0 -14 -4 -28 -10 -31 -5 -3 -10 -20 -10 -37 0 -20 -12 -45 -34
-72 -18 -23 -36 -50 -39 -61 -3 -14 -5 -10 -6 11 -1 22 8 38 29 59 32 31 39
71 18 104 -16 26 -3 51 27 51 20 0 25 -5 25 -24z"/>
<path d="M1910 3650 c0 -5 5 -10 10 -10 6 0 10 5 10 10 0 6 -4 10 -10 10 -5 0
-10 -4 -10 -10z"/>
<path d="M2120 3590 c0 -5 7 -10 15 -10 8 0 15 5 15 10 0 6 -7 10 -15 10 -8 0
-15 -4 -15 -10z"/>
<path d="M2060 3580 c0 -5 5 -10 10 -10 6 0 10 5 10 10 0 6 -4 10 -10 10 -5 0
-10 -4 -10 -10z"/>
<path d="M1980 3560 c0 -5 5 -10 10 -10 6 0 10 5 10 10 0 6 -4 10 -10 10 -5 0
-10 -4 -10 -10z"/>
<path d="M1840 3550 c0 -5 5 -10 10 -10 6 0 10 5 10 10 0 6 -4 10 -10 10 -5 0
-10 -4 -10 -10z"/>
<path d="M1820 3305 l0 -136 138 3 137 3 0 130 0 130 -137 3 -138 3 0 -136z
m218 99 c22 -6 23 -10 20 -103 l-3 -96 -95 0 -95 0 -3 94 c-2 69 1 97 10 103
15 9 132 11 166 2z"/>
<path d="M1880 3300 l0 -80 80 0 80 0 0 80 0 80 -80 0 -80 0 0 -80z"/>
<path d="M1700 3410 c0 -5 5 -10 10 -10 6 0 10 5 10 10 0 6 -4 10 -10 10 -5 0
-10 -4 -10 -10z"/>
<path d="M2230 3410 c0 -5 5 -10 10 -10 6 0 10 5 10 10 0 6 -4 10 -10 10 -5 0
-10 -4 -10 -10z"/>
<path d="M1710 3336 c0 -9 5 -16 10 -16 6 0 10 4 10 9 0 6 -4 13 -10 16 -5 3
-10 -1 -10 -9z"/>
<path d="M2210 3340 c0 -5 5 -10 10 -10 6 0 10 5 10 10 0 6 -4 10 -10 10 -5 0
-10 -4 -10 -10z"/>
<path d="M1670 3270 c0 -5 5 -10 10 -10 6 0 10 5 10 10 0 6 -4 10 -10 10 -5 0
-10 -4 -10 -10z"/>
<path d="M1700 3204 c0 -8 5 -12 10 -9 6 4 8 11 5 16 -9 14 -15 11 -15 -7z"/>
<path d="M2200 3204 c0 -8 5 -12 10 -9 6 4 8 11 5 16 -9 14 -15 11 -15 -7z"/>
<path d="M1755 3130 c-3 -5 1 -10 9 -10 9 0 16 5 16 10 0 6 -4 10 -9 10 -6 0
-13 -4 -16 -10z"/>
<path d="M1780 3030 c0 -5 4 -10 9 -10 6 0 13 5 16 10 3 6 -1 10 -9 10 -9 0
-16 -4 -16 -10z"/>
<path d="M2090 2990 c0 -5 5 -10 10 -10 6 0 10 5 10 10 0 6 -4 10 -10 10 -5 0
-10 -4 -10 -10z"/>
<path d="M1590 2940 c0 -5 5 -10 10 -10 6 0 10 5 10 10 0 6 -4 10 -10 10 -5 0
-10 -4 -10 -10z"/>
<path d="M1985 2920 c4 -6 11 -8 16 -5 14 9 11 15 -7 15 -8 0 -12 -5 -9 -10z"/>
<path d="M1850 2900 c0 -5 7 -10 16 -10 8 0 12 5 9 10 -3 6 -10 10 -16 10 -5
0 -9 -4 -9 -10z"/>
<path d="M1680 2890 c0 -5 5 -10 10 -10 6 0 10 5 10 10 0 6 -4 10 -10 10 -5 0
-10 -4 -10 -10z"/>
<path d="M2180 3480 c0 -5 5 -10 10 -10 6 0 10 5 10 10 0 6 -4 10 -10 10 -5 0
-10 -4 -10 -10z"/>
<path d="M1750 2840 c0 -5 5 -10 10 -10 6 0 10 5 10 10 0 6 -4 10 -10 10 -5 0
-10 -4 -10 -10z"/>
<path d="M2587 3756 c5 -24 3 -28 -11 -23 -9 4 -16 2 -16 -3 0 -5 -7 -7 -16
-3 -9 3 1 -20 25 -57 54 -83 221 -581 221 -658 0 -73 -33 -153 -80 -196 -78
-70 -77 -70 -370 -77 -240 -5 -270 -8 -320 -27 -82 -32 -161 -108 -204 -194
-20 -39 -36 -77 -36 -84 0 -8 20 -15 58 -19 141 -15 222 -47 299 -118 50 -46
108 -129 119 -171 3 -14 11 -29 16 -32 7 -5 9 25 6 87 -3 74 -9 104 -28 143
-32 63 -103 135 -158 160 -46 21 -49 30 -28 81 18 43 30 44 317 48 l216 2 85
-255 84 -255 70 -8 c93 -11 259 -4 279 13 26 21 17 78 -37 240 -46 141 -55
159 -85 178 -18 12 -33 21 -33 20 0 -2 29 -90 65 -197 36 -106 62 -197 59
-202 -9 -15 -235 -10 -264 5 -20 12 -36 51 -97 232 -75 227 -82 254 -60 254 8
0 41 -86 85 -226 40 -124 79 -227 86 -230 7 -3 58 -3 113 -2 l100 3 -100 295
c-106 314 -112 345 -82 430 15 43 7 70 -208 695 -37 107 -83 206 -70 151z
m204 -944 c-29 -56 -99 -115 -163 -135 -45 -14 -95 -17 -274 -17 -243 0 -296
-8 -365 -56 -36 -25 -89 -87 -89 -105 0 -3 26 -12 58 -19 80 -18 141 -51 190
-104 54 -58 54 -68 0 -22 -23 20 -60 45 -82 56 -49 23 -149 50 -188 50 -15 0
-28 5 -28 11 0 18 40 80 74 117 82 88 139 102 424 102 195 0 229 2 278 20 69
24 116 59 151 111 33 49 41 44 14 -9z m93 -287 c65 -199 75 -250 42 -214 -18
20 -139 397 -132 414 3 8 9 15 13 15 4 0 39 -97 77 -215z m-77 -32 c34 -104
64 -198 68 -210 5 -18 15 -22 53 -25 35 -2 48 -7 50 -20 3 -15 -4 -18 -45 -18
-26 0 -54 4 -62 9 -16 10 -153 420 -146 439 11 30 25 0 82 -175z m-807 41 c0
-8 -5 -12 -10 -9 -6 4 -8 11 -5 16 9 14 15 11 15 -7z"/>
<path d="M2020 3660 c0 -5 5 -10 10 -10 6 0 10 5 10 10 0 6 -4 10 -10 10 -5 0
-10 -4 -10 -10z"/>
<path d="M3111 3213 c-1 -19 4 -23 27 -22 22 1 23 2 5 6 -12 2 -24 12 -26 21
-3 12 -5 10 -6 -5z"/>
<path d="M3114 3100 c1 -11 14 -15 46 -16 l45 -1 -42 4 c-23 2 -44 9 -46 16
-2 7 -3 5 -3 -3z"/>
<path d="M3242 3050 c0 -14 2 -19 5 -12 2 6 2 18 0 25 -3 6 -5 1 -5 -13z"/>
<path d="M3381 3054 c0 -11 3 -14 6 -6 3 7 2 16 -1 19 -3 4 -6 -2 -5 -13z"/>
<path d="M3110 3000 c0 -18 6 -20 73 -19 39 1 64 3 55 6 -10 2 -18 8 -18 13 0
5 8 11 18 13 9 3 -16 5 -55 6 -67 1 -73 -1 -73 -19z"/>
<path d="M3240 2950 c0 -11 4 -20 9 -20 5 0 7 9 4 20 -3 11 -7 20 -9 20 -2 0
-4 -9 -4 -20z"/>
<path d="M3377 2947 c-3 -8 -1 -20 4 -28 6 -10 9 -7 9 14 0 29 -5 35 -13 14z"/>
<path d="M3141 2913 l-33 -4 4 -65 c11 -175 198 -262 325 -151 40 35 73 98 72
137 l-1 25 -8 -25 c-4 -14 -8 -21 -9 -16 -1 5 -10 -3 -22 -18 -11 -14 -18 -32
-16 -39 4 -7 6 -6 6 4 1 15 31 49 31 36 0 -19 -46 -89 -64 -98 -20 -9 -19 -8
2 7 26 19 29 44 6 44 -10 0 -14 5 -10 16 3 8 2 12 -4 9 -6 -3 -10 1 -10 10 0
9 -4 14 -8 11 -16 -10 -112 43 -121 66 -5 13 -7 26 -4 31 2 4 -2 7 -11 7 -8 0
-17 -6 -19 -12 -4 -8 -6 -7 -6 4 -1 9 5 19 12 21 7 3 5 6 -5 6 -12 1 -18 -7
-19 -21 l0 -23 -9 23 c-5 12 -17 21 -27 20 -10 0 -33 -3 -52 -5z m266 -199
c-3 -3 -12 -4 -19 -1 -8 3 -5 6 6 6 11 1 17 -2 13 -5z"/>
<path d="M2971 2795 c9 -66 64 -169 111 -209 37 -31 118 -72 161 -81 l27 -5 0
-160 0 -160 -38 0 c-47 0 -62 -14 -62 -57 l0 -34 137 3 c150 3 153 5 139 64
-5 20 -12 24 -46 24 l-40 0 0 160 c0 120 3 162 13 164 75 22 118 46 162 89 34
34 38 40 12 18 -39 -32 -57 -39 -57 -20 0 6 -9 8 -22 3 l-23 -7 20 24 c11 13
25 27 30 31 6 5 6 8 -2 8 -6 0 -15 -5 -19 -11 -14 -24 -98 -51 -158 -52 -130
-2 -241 92 -262 222 -6 40 -7 41 -49 41 l-42 0 8 -55z"/>
<path d="M1625 2731 c-7 -12 12 -24 25 -16 11 7 4 25 -10 25 -5 0 -11 -4 -15
-9z"/>
<path d="M3545 2719 c-4 -6 -5 -12 -2 -15 2 -3 7 2 10 11 7 17 1 20 -8 4z"/>
<path d="M3615 2709 c-4 -6 -5 -12 -2 -15 2 -3 7 2 10 11 7 17 1 20 -8 4z"/>
<path d="M3595 2669 c-4 -6 -5 -12 -2 -15 2 -3 7 2 10 11 7 17 1 20 -8 4z"/>
<path d="M3510 2620 c-13 -8 -12 -10 3 -10 9 0 17 5 17 10 0 12 -1 12 -20 0z"/>
<path d="M1353 1205 c-37 -87 -39 -95 -21 -95 11 0 22 9 25 20 4 17 14 20 58
20 44 0 54 -3 58 -20 3 -12 14 -20 26 -20 21 0 21 1 6 37 -55 130 -68 153 -90
153 -18 0 -28 -16 -62 -95z m82 15 c20 -39 20 -40 -15 -40 -33 0 -35 5 -20 44
12 33 16 33 35 -4z"/>
<path d="M1550 1205 c0 -88 1 -95 20 -95 19 0 20 7 20 95 0 88 -1 95 -20 95
-19 0 -20 -7 -20 -95z"/>
<path d="M1740 1205 c0 -88 1 -95 20 -95 19 0 20 7 20 95 0 88 -1 95 -20 95
-19 0 -20 -7 -20 -95z"/>
<path d="M1830 1205 c0 -88 2 -95 20 -95 16 0 19 8 22 62 l3 63 49 -63 c29
-36 57 -62 67 -62 17 0 19 9 19 95 0 88 -2 95 -20 95 -16 0 -19 -8 -22 -62
l-3 -63 -49 63 c-29 36 -57 62 -68 62 -16 0 -18 -9 -18 -95z"/>
<path d="M2050 1285 c0 -10 10 -15 30 -15 l30 0 0 -80 c0 -73 2 -80 20 -80 18
0 20 7 20 80 l0 80 30 0 c20 0 30 5 30 15 0 12 -16 15 -80 15 -64 0 -80 -3
-80 -15z"/>
<path d="M2250 1205 l0 -95 75 0 c60 0 75 3 75 15 0 12 -13 15 -60 15 -57 0
-60 1 -60 24 0 23 4 25 52 28 71 4 76 26 6 30 -46 3 -53 6 -56 26 -3 21 0 22
57 22 48 0 61 3 61 15 0 12 -15 15 -75 15 l-75 0 0 -95z"/>
<path d="M2440 1205 c0 -88 1 -95 20 -95 16 0 20 7 20 30 0 25 4 30 24 30 17
0 31 -10 43 -30 11 -20 25 -30 41 -30 l23 0 -21 31 -22 30 21 23 c26 28 27 60
1 86 -16 16 -33 20 -85 20 l-65 0 0 -95z m129 41 c4 -25 -24 -46 -61 -46 -25
0 -28 3 -28 36 l0 35 42 -3 c33 -2 44 -7 47 -22z"/>
<path d="M2630 1296 c0 -2 14 -36 31 -77 17 -41 35 -84 39 -96 16 -40 45 -17
78 60 45 110 47 117 23 117 -14 0 -24 -12 -36 -47 -8 -27 -22 -59 -29 -72
l-14 -24 -7 24 c-21 70 -48 119 -66 119 -11 0 -19 -2 -19 -4z"/>
<path d="M2860 1205 c0 -88 1 -95 20 -95 19 0 20 7 20 95 0 88 -1 95 -20 95
-19 0 -20 -7 -20 -95z"/>
<path d="M2950 1205 l0 -95 75 0 c60 0 75 3 75 15 0 12 -13 15 -55 15 -52 0
-55 1 -55 25 0 23 3 25 50 25 38 0 50 4 50 15 0 11 -12 15 -50 15 -47 0 -50 2
-50 25 0 24 3 25 55 25 42 0 55 3 55 15 0 12 -15 15 -75 15 l-75 0 0 -95z"/>
<path d="M3136 1275 c17 -67 61 -170 73 -170 16 0 24 13 49 84 l19 53 24 -67
c35 -99 51 -96 88 18 36 108 36 107 12 107 -15 0 -23 -14 -36 -65 -10 -36 -21
-65 -25 -65 -4 0 -15 29 -25 66 -15 55 -21 65 -38 62 -15 -2 -26 -19 -42 -67
-12 -36 -24 -61 -27 -55 -3 5 -13 35 -22 67 -13 45 -21 57 -36 57 -17 0 -19
-5 -14 -25z"/>
<path d="M3460 1205 l0 -95 75 0 c60 0 75 3 75 15 0 12 -13 15 -55 15 -52 0
-55 1 -55 25 0 23 3 25 50 25 38 0 50 4 50 15 0 11 -12 15 -50 15 -47 0 -50 2
-50 25 0 24 3 25 55 25 42 0 55 3 55 15 0 12 -15 15 -75 15 l-75 0 0 -95z"/>
<path d="M3656 1248 c-3 -29 -6 -72 -6 -95 0 -36 3 -43 20 -43 16 0 20 7 20
30 0 41 35 41 70 -1 15 -19 33 -30 44 -28 17 4 16 6 -4 32 l-22 28 21 20 c25
23 27 56 5 87 -13 19 -24 22 -78 22 l-63 0 -7 -52z m122 -7 c4 -29 -12 -41
-55 -41 -31 0 -33 2 -33 36 l0 35 43 -3 c36 -3 43 -7 45 -27z"/>
</g>
</svg>
