<?xml version="1.0" standalone="no"?>
<!DOCTYPE svg PUBLIC "-//W3C//DTD SVG 20010904//EN"
 "http://www.w3.org/TR/2001/REC-SVG-20010904/DTD/svg10.dtd">
<svg version="1.0" xmlns="http://www.w3.org/2000/svg"
 width="273.000000pt" height="270.000000pt" viewBox="0 0 273.000000 270.000000"
 preserveAspectRatio="xMidYMid meet">

<g transform="translate(0.000000,270.000000) scale(0.100000,-0.100000)"
fill="#000000" stroke="none">
<path d="M0 1350 l0 -1350 1365 0 1365 0 0 1350 0 1350 -697 0 -698 0 55 -31
c66 -36 111 -78 150 -139 34 -54 20 -19 190 -485 57 -156 194 -543 275 -775
51 -146 48 -137 36 -120 -6 8 -22 50 -37 92 -14 43 -30 78 -35 78 -4 0 -6 7
-3 15 4 8 1 15 -6 15 -6 0 -9 4 -6 9 3 4 0 22 -6 39 l-12 30 -13 -25 c-12 -23
-8 -40 33 -162 25 -75 55 -150 65 -168 25 -40 93 -101 133 -119 17 -7 24 -13
16 -14 -34 0 -136 87 -167 145 -7 12 -32 81 -57 153 -48 142 -66 180 -103 230
-13 17 -22 36 -19 40 2 4 0 14 -6 22 -8 12 -9 12 -4 -2 7 -24 1 -23 -37 6 -85
63 -133 77 -297 85 l-135 6 -3 29 -4 29 144 -5 c158 -6 227 -23 306 -78 23
-16 42 -28 42 -26 0 12 -308 873 -320 897 -19 35 -92 110 -131 135 -20 12 -60
29 -89 38 -58 17 -81 15 -30 -3 51 -17 162 -137 198 -212 17 -36 77 -193 132
-350 56 -156 110 -308 120 -336 11 -29 18 -53 15 -53 -2 0 -30 7 -62 15 -32 8
-100 15 -155 15 -87 0 -98 2 -108 20 -11 20 -2 27 16 11 13 -13 114 -18 114
-6 0 6 -27 89 -59 185 -59 174 -62 200 -25 200 18 0 23 -10 94 -217 55 -161
65 -182 86 -186 29 -5 36 -34 -66 268 -137 404 -157 451 -237 537 -71 75 -281
137 -370 108 -79 -26 -140 -65 -203 -129 -102 -103 -160 -248 -160 -396 0
-131 -26 -187 -167 -361 l-82 -101 42 -23 c79 -43 93 -80 57 -150 l-20 -39 33
-25 c17 -14 28 -26 22 -26 -5 1 -23 11 -39 24 -24 20 -27 26 -17 45 13 24 6
45 -12 34 -7 -4 -6 1 2 10 19 24 8 31 -13 8 -9 -10 -19 -35 -23 -55 -5 -30 -2
-39 18 -55 19 -16 22 -22 12 -32 -19 -19 -16 -66 5 -81 38 -26 44 -53 26 -114
-31 -107 -1 -174 92 -204 35 -12 58 -12 279 6 63 5 88 3 115 -10 19 -9 26 -13
15 -10 -43 14 -131 16 -194 5 -36 -6 -100 -13 -142 -14 -43 -1 -75 -5 -72 -9
7 -12 -5 -10 -38 8 -17 8 -28 18 -25 21 6 7 -55 80 -62 75 -9 -7 -22 23 -22
50 0 27 19 51 21 26 0 -7 9 13 19 46 20 63 16 88 -19 120 -22 20 -28 65 -10
83 8 8 5 15 -11 26 -26 18 -29 61 -6 104 24 47 20 56 -32 77 -58 23 -82 43
-82 68 0 11 -5 28 -10 38 -12 22 1 50 32 69 18 11 18 10 7 -11 -12 -23 -12
-23 15 1 20 19 23 27 14 34 -9 6 -8 7 4 3 24 -7 129 110 168 187 24 48 30 73
30 124 0 238 123 459 321 576 l64 37 -453 0 -452 0 0 -1350z m2367 1254 c46
-35 66 -70 71 -128 8 -103 -64 -178 -170 -178 -95 1 -158 69 -158 170 0 57 26
104 80 140 29 20 44 23 93 20 37 -3 67 -11 84 -24z m-1159 -43 c59 -30 129
-96 154 -145 18 -34 88 -220 88 -231 0 -3 -13 -5 -28 -5 -27 0 -30 5 -57 83
-50 147 -89 203 -169 245 -42 22 -64 27 -126 27 -64 0 -82 -4 -122 -28 -27
-15 -55 -41 -64 -58 -11 -22 -21 -29 -37 -27 -70 10 25 124 133 159 48 16 182
4 228 -20z m-34 -90 l29 -19 -29 -6 c-16 -3 -52 -5 -81 -5 -38 1 -60 -5 -83
-21 -16 -12 -40 -20 -52 -18 -21 3 -21 4 11 40 18 21 47 42 65 48 41 12 103 4
140 -19z m-84 -101 c0 -27 -3 -30 -30 -30 -27 0 -30 3 -30 30 0 27 3 30 30 30
27 0 30 -3 30 -30z m150 15 c16 -8 35 -25 41 -37 18 -33 179 -520 179 -540 0
-19 -25 -24 -47 -10 -7 4 -26 50 -42 102 -83 268 -131 414 -138 421 -4 4 -19
9 -32 11 -33 4 -49 31 -32 52 17 20 34 20 71 1z m-450 -61 c0 -33 -2 -35 -27
-32 -22 2 -29 9 -31 30 -2 19 2 28 15 31 39 10 43 7 43 -29z m180 11 c10 -13
10 -19 -4 -33 -9 -10 -16 -24 -16 -30 0 -6 -20 -27 -45 -48 -36 -29 -45 -43
-45 -69 0 -19 8 -39 20 -50 15 -13 20 -31 20 -67 0 -36 4 -48 15 -48 12 0 15
14 15 70 0 39 -5 79 -12 89 -15 24 -4 51 22 51 26 0 37 -27 22 -51 -15 -23
-16 -159 -2 -159 6 0 10 19 10 41 0 32 6 47 25 65 14 13 25 33 25 45 0 11 11
30 24 40 14 11 26 29 28 42 2 14 10 22 23 22 28 0 28 -48 0 -53 -38 -8 -65
-33 -65 -63 0 -18 -7 -32 -20 -39 -25 -14 -30 -100 -5 -100 10 0 15 10 15 34
0 25 7 40 25 54 17 13 25 30 25 50 0 30 14 43 38 34 15 -5 16 -52 1 -52 -5 0
-24 -13 -40 -28 -33 -30 -47 -92 -22 -92 7 0 13 11 13 25 0 14 5 25 10 25 6 0
10 -11 10 -25 0 -14 5 -25 10 -25 6 0 10 6 10 13 0 7 16 28 35 47 31 30 34 37
28 73 -5 37 -4 39 18 35 28 -4 38 -37 15 -50 -9 -5 -16 -15 -16 -23 0 -7 -13
-27 -30 -43 -32 -33 -35 -46 -20 -87 8 -21 16 -26 38 -23 21 2 27 8 25 25 -1
11 4 27 13 34 12 10 18 9 31 -4 20 -20 10 -47 -17 -47 -11 0 -23 -7 -26 -15
-4 -8 -17 -15 -30 -15 -14 0 -24 -6 -24 -14 0 -12 12 -14 58 -10 31 3 59 9 60
14 6 16 39 11 46 -6 12 -32 -17 -45 -53 -22 -11 7 -26 8 -37 3 -25 -11 -30
-12 -54 -14 -11 0 -20 -5 -20 -11 0 -5 24 -10 54 -10 30 0 57 -4 60 -9 3 -4
16 -6 30 -4 27 5 39 -7 30 -31 -8 -22 -37 -20 -59 4 -13 15 -31 20 -67 20 -26
0 -48 -4 -48 -10 0 -5 16 -10 35 -10 19 0 35 -4 35 -10 0 -5 -16 -10 -35 -10
-22 0 -35 -5 -35 -13 0 -8 14 -14 35 -15 20 -2 35 2 35 8 0 18 45 6 48 -13 4
-22 -23 -33 -51 -18 -28 14 -67 11 -67 -6 0 -8 12 -13 28 -13 15 0 33 -5 39
-11 8 -8 21 -6 46 6 40 19 57 14 57 -16 0 -23 -25 -36 -43 -21 -19 15 -127 27
-127 13 0 -6 5 -11 12 -11 6 0 22 -9 34 -21 18 -17 25 -19 42 -8 27 17 54 5
50 -23 -4 -27 -37 -37 -52 -16 -6 9 -21 18 -34 22 -12 4 -22 12 -22 17 0 5 -9
9 -20 9 -11 0 -20 -5 -20 -10 0 -6 -11 -16 -25 -22 -33 -15 -32 -28 9 -67 29
-29 38 -32 70 -26 34 7 36 6 36 -19 0 -21 -5 -26 -25 -26 -14 0 -25 5 -25 10
0 6 -5 10 -11 10 -19 0 -99 74 -99 92 0 10 -7 18 -15 18 -22 0 -19 -44 5 -65
21 -19 29 -95 10 -95 -5 0 -10 17 -10 38 0 25 -7 43 -20 55 -11 9 -20 28 -20
42 0 14 -4 25 -10 25 -16 0 -12 -76 5 -90 8 -7 15 -20 15 -29 0 -9 5 -22 11
-28 15 -15 3 -33 -22 -33 -18 0 -20 4 -14 38 5 29 2 42 -9 52 -10 7 -16 28
-16 51 0 28 -4 39 -15 39 -17 0 -21 -50 -6 -66 5 -5 11 -31 13 -59 2 -38 0
-50 -11 -50 -20 0 -40 36 -23 42 14 5 16 59 2 68 -5 3 -7 19 -3 35 4 23 2 30
-10 30 -15 0 -26 -68 -26 -167 0 -27 -4 -33 -21 -33 -26 0 -38 29 -18 44 26
19 35 49 30 104 -3 36 -8 52 -18 52 -10 0 -14 -12 -14 -38 0 -26 -6 -42 -20
-52 -14 -10 -20 -26 -20 -52 0 -20 -4 -39 -9 -42 -4 -3 -6 -17 -3 -31 3 -20 0
-25 -17 -25 -34 0 -38 30 -8 52 21 15 27 28 27 56 0 26 6 41 20 50 25 15 29
82 5 82 -9 0 -15 -9 -15 -25 0 -14 -4 -25 -10 -25 -5 0 -10 12 -10 26 0 50
-70 82 -104 48 -12 -11 -13 -20 -6 -34 6 -10 10 -25 10 -33 0 -23 -31 -30 -49
-12 -15 15 -14 18 4 33 11 9 19 25 17 34 -3 17 43 48 73 48 23 0 18 17 -7 23
-15 4 -30 -1 -43 -13 -12 -11 -31 -20 -43 -20 -12 0 -22 -4 -22 -10 0 -5 -11
-10 -25 -10 -18 0 -25 5 -25 20 0 25 25 36 45 20 12 -10 22 -8 50 9 20 12 47
21 61 21 15 0 24 6 24 15 0 12 -13 15 -55 15 -30 0 -55 -4 -55 -10 0 -5 -17
-10 -38 -10 -21 0 -43 -5 -49 -11 -16 -16 -43 -3 -43 21 0 15 7 20 25 20 14 0
25 -4 25 -10 0 -5 16 -10 35 -10 19 0 35 5 35 10 0 6 17 10 38 10 20 0 47 3
60 6 39 11 24 24 -28 24 -29 0 -50 -5 -50 -11 0 -18 -45 -5 -48 14 -4 22 25
34 49 18 20 -12 99 -5 99 9 0 12 -134 19 -147 8 -15 -12 -43 6 -43 29 0 21 29
27 49 9 24 -22 141 -23 141 -1 0 18 -56 21 -62 4 -5 -16 -48 -2 -48 15 0 20
25 37 44 30 9 -3 16 -10 16 -14 0 -4 11 -7 25 -6 32 1 33 26 1 26 -13 0 -26 7
-30 15 -3 8 -15 15 -26 15 -27 0 -37 27 -17 47 13 13 19 14 31 3 9 -7 16 -23
16 -36 0 -19 5 -24 24 -24 19 0 26 7 31 30 5 24 1 37 -19 61 -14 17 -26 37
-26 44 0 8 -7 18 -16 23 -22 12 -14 46 12 50 24 3 41 -25 24 -42 -16 -16 -12
-33 15 -60 14 -14 25 -32 25 -41 0 -9 6 -15 13 -12 6 2 12 13 12 25 0 11 4 24
8 28 4 4 7 -5 7 -19 0 -17 5 -27 15 -27 22 0 19 56 -5 80 -11 11 -20 31 -20
45 0 14 -5 25 -10 25 -6 0 -14 8 -17 18 -10 26 -45 51 -70 52 -19 0 -23 6 -23
30 0 25 4 30 25 30 20 0 25 -5 25 -24 0 -29 33 -56 68 -56 26 0 40 -26 23 -43
-17 -17 -13 -36 14 -69 14 -17 25 -42 25 -59 0 -19 5 -29 15 -29 23 0 20 72
-5 103 -12 15 -20 40 -20 62 0 31 7 43 46 79 43 38 46 44 34 63 -11 18 -12 24
-1 37 17 20 25 20 41 1z m90 -39 c0 -8 -7 -19 -15 -26 -8 -7 -15 -22 -15 -34
0 -12 -4 -26 -9 -31 -5 -6 -11 -23 -14 -40 -4 -27 -4 -27 -6 7 0 20 4 40 9 43
6 3 10 17 10 31 0 13 -4 24 -10 24 -15 0 -12 48 3 53 17 6 47 -11 47 -27z
m-175 -26 c12 -37 -20 -55 -45 -25 -10 12 -10 18 0 30 17 21 37 19 45 -5z
m1440 -71 c73 -20 145 -119 145 -198 0 -18 -6 -21 -45 -21 -41 0 -45 -2 -45
-25 0 -23 4 -25 45 -25 38 0 45 -3 45 -19 0 -17 -8 -20 -47 -23 -40 -3 -48 -6
-48 -23 0 -17 8 -20 48 -23 38 -3 47 -7 47 -22 0 -15 -9 -19 -47 -22 -40 -3
-48 -6 -48 -23 0 -16 8 -21 43 -23 42 -3 42 -3 42 -44 0 -126 -154 -218 -268
-159 -72 37 -108 87 -114 157 l-3 39 42 3 c26 2 43 9 47 18 10 26 -3 34 -50
34 -37 0 -44 3 -44 20 0 17 7 20 44 20 72 0 72 46 1 52 -28 2 -41 8 -43 21 -3
14 4 17 41 17 27 0 47 5 50 13 9 26 -6 37 -49 37 -49 0 -51 3 -33 76 14 56 72
121 124 139 49 17 69 18 120 4z m-315 -473 c0 -201 228 -329 393 -220 21 13
42 22 46 19 5 -2 15 3 22 12 10 12 10 14 2 9 -19 -11 -16 2 7 31 24 31 50 114
50 160 0 31 2 33 36 33 l37 0 -5 -64 c-6 -73 -40 -155 -87 -208 -28 -33 -36
-36 -69 -31 -26 3 -33 2 -23 -5 8 -6 21 -8 30 -5 9 3 5 -5 -9 -16 -14 -11 -49
-28 -77 -38 l-53 -17 0 -206 c0 -194 -1 -208 -22 -250 -17 -32 -35 -51 -65
-66 -23 -12 -40 -24 -37 -26 2 -3 -8 -3 -23 -1 -21 3 -24 2 -13 -6 20 -14 9
-21 -52 -36 -89 -20 -273 1 -268 31 1 5 -18 19 -41 32 -98 51 -134 106 -204
305 -30 87 -57 162 -60 168 -4 5 -117 9 -274 9 l-267 0 -27 -56 c-16 -31 -27
-57 -25 -58 2 -1 23 -8 48 -15 117 -33 246 -140 305 -252 20 -39 35 -72 33
-74 -2 -2 -19 26 -38 63 -37 72 -127 167 -194 206 -23 13 -66 31 -96 41 -30
10 -59 21 -63 25 -5 4 3 31 18 61 14 29 24 58 21 64 -2 7 91 9 283 8 157 -1
280 1 273 3 -6 3 -10 10 -6 15 9 16 23 10 20 -8 -2 -10 0 -27 5 -38 6 -17 8
-16 9 10 1 17 4 24 7 17 2 -6 9 -9 14 -6 5 3 -3 15 -18 27 -24 20 -41 22 -192
25 -117 2 -162 0 -151 -7 9 -7 10 -11 3 -11 -6 0 -15 5 -18 10 -11 17 -25 11
-18 -7 7 -17 6 -17 -11 -1 -14 14 -35 18 -112 17 -88 0 -94 -2 -82 -17 12 -15
11 -16 -4 -4 -14 11 -18 10 -28 -8 -6 -12 -9 -28 -6 -36 3 -7 1 -13 -4 -11 -6
1 -24 -20 -40 -48 -45 -76 -35 -40 14 50 l44 80 112 3 c99 2 110 4 99 18 -10
12 -9 18 4 31 23 23 51 9 45 -22 l-5 -25 158 0 c92 0 168 -5 182 -11 34 -15
51 -50 103 -200 51 -150 62 -174 105 -226 25 -30 23 -29 -10 5 -39 43 -89 153
-136 304 -19 58 -38 68 -49 25 -5 -21 -4 -21 9 -4 13 18 14 17 20 -3 4 -12 4
-24 1 -27 -3 -4 -6 2 -6 12 0 14 -3 16 -11 8 -9 -9 1 -48 37 -154 57 -169 93
-223 178 -264 54 -26 57 -27 233 -23 165 3 181 5 214 26 62 38 70 73 69 306
-1 110 1 209 5 219 6 14 4 16 -11 10 -12 -4 -15 -3 -10 5 4 7 2 12 -3 12 -15
0 -14 -37 1 -42 7 -3 2 -7 -10 -10 -19 -5 -21 -3 -16 19 6 24 5 25 -27 18 -27
-5 -31 -4 -19 5 13 10 12 11 -3 6 -10 -3 -26 -6 -35 -7 -9 0 -3 -5 13 -10 17
-5 37 -7 45 -4 13 4 15 -21 12 -193 -1 -108 -5 -203 -7 -211 -7 -19 -61 -7
-101 24 -39 30 -89 93 -81 101 3 3 12 -8 21 -24 20 -39 86 -90 125 -98 l31 -6
0 195 0 195 -32 7 c-79 17 -172 88 -221 167 -21 34 -47 131 -47 175 0 32 1 33
40 33 l40 0 0 -44z m-1763 -78 c-3 -8 -6 -5 -6 6 -1 11 2 17 5 13 3 -3 4 -12
1 -19z m932 -42 c17 -20 2 -48 -23 -44 -24 3 -34 37 -14 49 18 12 24 11 37 -5z
m-419 -80 c0 -22 -12 -68 -26 -101 -14 -33 -41 -100 -61 -148 -19 -48 -37 -86
-39 -84 -2 2 14 48 36 102 24 59 38 107 34 119 -4 17 -3 18 5 6 6 -8 11 -10
12 -5 0 6 2 18 4 28 2 9 -3 17 -11 17 -8 0 -13 -3 -12 -7 1 -5 -5 -21 -14 -38
-8 -16 -37 -81 -63 -143 -26 -62 -49 -111 -51 -109 -2 2 8 30 22 63 67 151
114 285 108 308 -4 17 -1 27 12 34 30 17 44 3 44 -42z m843 39 c91 -24 172
-80 227 -160 15 -22 48 -95 74 -162 53 -141 78 -189 124 -237 42 -45 139 -93
155 -77 13 13 27 14 27 2 0 -37 -112 -2 -177 57 -43 38 -97 130 -124 209 -14
43 -25 61 -31 55 -7 -7 -3 -31 11 -72 34 -97 66 -154 120 -209 27 -28 42 -47
33 -42 -32 17 -89 86 -115 138 -15 28 -45 100 -67 160 -57 150 -107 218 -193
262 -65 32 -120 40 -268 41 -101 0 -139 3 -148 13 -8 10 -7 17 1 25 18 18 279
16 351 -3z m-21 -89 c10 -5 15 -12 12 -17 -3 -5 2 -6 10 -3 21 8 96 -37 135
-81 40 -46 63 -92 106 -212 20 -54 52 -123 72 -153 20 -30 29 -49 19 -41 -29
24 -65 94 -110 213 -26 66 -49 112 -56 110 -6 -1 -9 2 -5 8 3 5 2 10 -3 10 -6
0 -13 11 -16 24 -6 25 -62 73 -73 62 -4 -3 -1 -6 6 -6 7 0 9 -5 5 -12 -4 -7
-4 -10 1 -6 14 14 95 -115 95 -152 0 -6 5 -8 12 -4 6 4 8 3 5 -3 -17 -27 69
-239 112 -277 30 -27 26 -36 -16 -34 l-38 1 33 4 33 4 -22 20 c-12 10 -27 19
-34 19 -21 0 -95 72 -116 113 -27 51 -91 228 -85 234 13 13 59 -56 96 -144 23
-56 50 -112 61 -124 23 -27 25 -36 3 -18 -18 15 -66 107 -84 162 -8 28 -15 36
-23 28 -7 -7 -3 -30 16 -78 32 -81 79 -142 107 -140 24 2 24 -1 1 45 -10 20
-31 75 -46 122 -53 163 -95 218 -203 267 -46 22 -73 26 -195 30 -133 6 -156
11 -157 37 0 10 318 3 342 -8z m355 -108 c-3 -7 -5 -2 -5 12 0 14 2 19 5 13 2
-7 2 -19 0 -25z m-902 12 c7 -12 -2 -12 -30 0 -19 8 -19 9 2 9 12 1 25 -3 28
-9z m242 -12 c-3 -8 -6 -5 -6 6 -1 11 2 17 5 13 3 -3 4 -12 1 -19z m-787 7 c0
-2 -10 -9 -22 -15 -22 -11 -22 -10 -4 4 21 17 26 19 26 11z m374 -1 c9 -3 16
-16 16 -29 0 -13 -7 -26 -16 -29 -28 -11 -54 -6 -54 9 0 13 -4 14 -21 5 -20
-11 -78 -126 -80 -158 0 -11 -2 -13 -6 -4 -10 24 46 140 84 176 39 36 50 40
77 30z m609 -1 c-7 -2 -19 -2 -25 0 -7 3 -2 5 12 5 14 0 19 -2 13 -5z m-984
-90 c13 -25 14 -98 2 -128 -5 -12 -6 7 -4 45 5 60 3 68 -21 97 -14 17 -26 34
-26 37 0 11 36 -27 49 -51z m296 -82 c-12 -24 -22 -31 -43 -30 l-27 2 26 4
c18 3 30 14 40 39 7 20 15 31 17 26 2 -6 -4 -24 -13 -41z m68 0 c-4 -15 2 -20
29 -26 153 -30 278 -116 347 -237 17 -29 31 -57 31 -63 0 -5 -14 15 -31 45
-65 119 -196 215 -330 241 -44 9 -59 16 -59 29 0 14 8 30 16 30 1 0 0 -9 -3
-19z m-228 -44 c-7 -16 -65 -30 -65 -15 0 4 11 8 25 8 14 0 28 7 32 15 3 9 7
14 9 12 3 -2 2 -11 -1 -20z m249 -28 c73 -13 138 -41 189 -81 46 -36 97 -104
97 -127 0 -9 -10 3 -21 27 -42 85 -150 152 -275 172 -69 11 -94 9 -209 -17
-105 -23 -103 -23 -82 -35 14 -7 37 -5 82 6 35 9 74 15 87 15 20 -1 20 -2 3
-6 -11 -2 -50 -11 -88 -19 -62 -15 -69 -15 -92 0 -22 15 -38 45 -17 32 5 -3
44 3 88 14 133 31 161 34 238 19z m-397 -36 c-3 -10 -5 -4 -5 12 0 17 2 24 5
18 2 -7 2 -21 0 -30z m336 0 c-7 -2 -19 -2 -25 0 -7 3 -2 5 12 5 14 0 19 -2
13 -5z m150 -36 c86 -39 167 -138 166 -202 0 -23 -30 38 -34 68 -2 22 -59 81
-104 110 -19 11 -62 29 -95 39 -45 14 -51 17 -23 14 21 -3 61 -16 90 -29z
m-424 -28 c10 0 11 -3 4 -5 -14 -6 -63 24 -63 38 0 5 10 0 22 -12 12 -11 29
-20 37 -21z m308 15 c-3 -3 -12 -4 -19 -1 -8 3 -5 6 6 6 11 1 17 -2 13 -5z
m-54 -11 c-7 -2 -21 -2 -30 0 -10 3 -4 5 12 5 17 0 24 -2 18 -5z m110 0 c-7
-2 -21 -2 -30 0 -10 3 -4 5 12 5 17 0 24 -2 18 -5z m-170 -10 c-7 -2 -21 -2
-30 0 -10 3 -4 5 12 5 17 0 24 -2 18 -5z m-289 -38 c2 -6 -4 -11 -14 -11 -10
0 -16 4 -13 9 2 4 -1 15 -9 24 -12 15 -11 15 9 2 13 -7 24 -18 27 -24z m209
28 c-18 -2 -48 -2 -65 0 -18 2 -4 4 32 4 36 0 50 -2 33 -4z m347 -14 c40 -24
80 -59 80 -70 0 -4 -14 6 -32 23 -17 16 -48 38 -67 48 -20 11 -31 19 -26 20 6
0 26 -10 45 -21z m21 -96 c37 -40 59 -75 59 -93 0 -8 -10 4 -21 28 -12 23 -40
59 -63 78 -22 20 -32 32 -21 26 11 -6 32 -23 46 -39z m794 19 c-3 -3 -11 0
-18 7 -9 10 -8 11 6 5 10 -3 15 -9 12 -12z m272 -16 c3 -3 -12 -6 -35 -6 -22
0 -43 3 -45 8 -6 9 71 7 80 -2z m-930 -170 c-7 -27 -19 -51 -27 -54 -10 -2
-11 -1 -4 5 16 12 34 92 36 160 l2 58 3 -60 c2 -33 -3 -82 -10 -109z m158 124
c-28 -12 -37 -12 -30 0 3 6 16 10 28 9 21 0 21 -1 2 -9z m-228 -162 c-2 -18
-4 -4 -4 32 0 36 2 50 4 33 2 -18 2 -48 0 -65z m-655 -490 c9 -24 25 -67 37
-95 l21 -53 -24 0 c-15 0 -26 7 -29 20 -8 29 -86 29 -94 0 -4 -17 -43 -30 -43
-15 0 3 16 45 36 95 30 75 40 90 58 90 16 0 26 -10 38 -42z m118 -53 c0 -88
-1 -95 -20 -95 -19 0 -20 7 -20 95 0 88 1 95 20 95 19 0 20 -7 20 -95z m160 0
c0 -86 -2 -95 -19 -95 -17 0 -19 9 -20 95 -2 90 -1 95 19 95 19 0 20 -6 20
-95z m132 33 l43 -61 3 61 c2 46 7 62 17 62 12 0 15 -15 16 -62 0 -35 2 -78 5
-95 3 -29 1 -33 -19 -33 -17 0 -33 16 -62 62 l-40 62 -3 -62 c-3 -54 -6 -62
-22 -62 -18 0 -20 7 -20 95 0 87 2 95 19 95 13 0 35 -22 63 -62z m268 47 c0
-10 -10 -15 -30 -15 l-30 0 0 -80 c0 -73 -2 -80 -20 -80 -18 0 -20 7 -20 80
l0 80 -30 0 c-20 0 -30 5 -30 15 0 12 16 15 80 15 64 0 80 -3 80 -15z m160 0
c0 -11 -12 -15 -45 -15 -41 0 -45 -2 -45 -25 0 -22 4 -25 40 -25 29 0 40 -4
40 -15 0 -11 -11 -15 -40 -15 -36 0 -40 -2 -40 -25 0 -23 4 -25 45 -25 33 0
45 -4 45 -15 0 -12 -14 -15 -65 -15 l-65 0 0 95 0 95 65 0 c51 0 65 -3 65 -15z
m164 -7 c21 -29 20 -57 -1 -80 -16 -18 -16 -21 0 -47 21 -37 21 -41 -1 -41
-11 0 -27 14 -38 35 -25 47 -54 47 -54 0 0 -28 -4 -35 -20 -35 -19 0 -20 7
-20 95 l0 95 59 0 c51 0 62 -3 75 -22z m97 -43 c12 -36 26 -65 29 -65 3 0 17
29 29 65 18 51 28 65 43 65 12 0 18 -5 16 -12 -3 -7 -18 -50 -34 -95 -26 -74
-32 -83 -54 -83 -22 0 -28 9 -55 83 -40 109 -39 107 -17 107 15 0 25 -15 43
-65z m189 -30 c0 -88 -1 -95 -20 -95 -19 0 -20 7 -20 95 0 88 1 95 20 95 19 0
20 -7 20 -95z m170 80 c0 -11 -12 -15 -45 -15 -41 0 -45 -2 -45 -25 0 -22 4
-25 40 -25 29 0 40 -4 40 -15 0 -11 -11 -15 -40 -15 -36 0 -40 -2 -40 -25 0
-23 3 -25 50 -25 38 0 50 -4 50 -15 0 -12 -14 -15 -70 -15 l-70 0 0 95 0 95
65 0 c51 0 65 -3 65 -15z m80 -37 c13 -57 29 -94 30 -70 0 8 7 38 16 68 11 40
20 54 34 54 14 0 23 -14 35 -57 9 -32 17 -62 19 -68 2 -5 7 4 11 20 24 101 26
105 46 105 15 0 18 -5 14 -22 -43 -169 -40 -163 -66 -166 -23 -3 -27 2 -38 53
-7 30 -16 55 -21 55 -5 0 -16 -25 -25 -55 -13 -45 -19 -55 -38 -55 -19 0 -24
10 -40 73 -10 40 -20 83 -24 95 -4 17 -1 22 15 22 16 0 22 -11 32 -52z m370
37 c0 -11 -12 -15 -45 -15 -41 0 -45 -2 -45 -25 0 -22 4 -25 40 -25 29 0 40
-4 40 -15 0 -11 -11 -15 -40 -15 -36 0 -40 -2 -40 -25 0 -23 4 -25 45 -25 33
0 45 -4 45 -15 0 -12 -14 -15 -65 -15 l-65 0 0 95 0 95 65 0 c51 0 65 -3 65
-15z m164 -1 c20 -20 21 -68 1 -88 -13 -13 -13 -19 6 -50 l21 -36 -24 0 c-17
0 -29 10 -42 35 -24 44 -44 45 -48 3 -2 -22 -9 -34 -20 -36 -16 -3 -18 6 -18
92 l0 96 54 0 c36 0 60 -5 70 -16z"/>
<path d="M840 2456 c0 -9 7 -16 16 -16 17 0 14 22 -4 28 -7 2 -12 -3 -12 -12z"/>
<path d="M1050 2370 c0 -5 7 -10 15 -10 8 0 15 5 15 10 0 6 -7 10 -15 10 -8 0
-15 -4 -15 -10z"/>
<path d="M1180 2365 c0 -8 7 -15 15 -15 8 0 15 7 15 15 0 8 -7 15 -15 15 -8 0
-15 -7 -15 -15z"/>
<path d="M750 2326 c0 -9 7 -16 16 -16 17 0 14 22 -4 28 -7 2 -12 -3 -12 -12z"/>
<path d="M940 2320 c0 -5 5 -10 10 -10 6 0 10 5 10 10 0 6 -4 10 -10 10 -5 0
-10 -4 -10 -10z"/>
<path d="M692 2238 c6 -18 28 -21 28 -4 0 9 -7 16 -16 16 -9 0 -14 -5 -12 -12z"/>
<path d="M1080 2220 c0 -5 7 -10 15 -10 8 0 15 5 15 10 0 6 -7 10 -15 10 -8 0
-15 -4 -15 -10z"/>
<path d="M790 2165 c0 -8 5 -15 10 -15 6 0 10 7 10 15 0 8 -4 15 -10 15 -5 0
-10 -7 -10 -15z"/>
<path d="M930 2170 c0 -5 5 -10 10 -10 6 0 10 5 10 10 0 6 -4 10 -10 10 -5 0
-10 -4 -10 -10z"/>
<path d="M1085 2140 c-3 -5 -1 -10 4 -10 6 0 11 5 11 10 0 6 -2 10 -4 10 -3 0
-8 -4 -11 -10z"/>
<path d="M1176 2142 c-3 -6 -1 -14 5 -17 15 -10 25 3 12 16 -7 7 -13 7 -17 1z"/>
<path d="M700 2110 c0 -5 5 -10 10 -10 6 0 10 5 10 10 0 6 -4 10 -10 10 -5 0
-10 -4 -10 -10z"/>
<path d="M660 1970 c0 -5 5 -10 10 -10 6 0 10 5 10 10 0 6 -4 10 -10 10 -5 0
-10 -4 -10 -10z"/>
<path d="M1210 1970 c0 -5 5 -10 10 -10 6 0 10 5 10 10 0 6 -4 10 -10 10 -5 0
-10 -4 -10 -10z"/>
<path d="M770 1951 c-11 -21 -14 -278 -4 -305 5 -14 29 -16 164 -16 87 0 165
3 174 6 14 5 16 28 16 154 0 82 -3 155 -6 164 -5 14 -30 16 -170 16 -151 0
-164 -1 -174 -19z m286 -35 c17 -13 19 -27 19 -116 0 -129 -1 -130 -140 -130
-65 0 -105 4 -113 12 -19 19 -16 212 4 232 21 22 201 23 230 2z"/>
<path d="M832 1898 c-8 -8 -12 -45 -12 -99 0 -114 4 -119 116 -119 123 0 124
1 124 113 0 59 -4 97 -12 105 -8 8 -47 12 -108 12 -61 0 -100 -4 -108 -12z"/>
<path d="M660 1880 c0 -5 5 -10 10 -10 6 0 10 5 10 10 0 6 -4 10 -10 10 -5 0
-10 -4 -10 -10z"/>
<path d="M1270 1880 c0 -5 5 -10 10 -10 6 0 10 5 10 10 0 6 -4 10 -10 10 -5 0
-10 -4 -10 -10z"/>
<path d="M580 1840 c0 -5 5 -10 10 -10 6 0 10 5 10 10 0 6 -4 10 -10 10 -5 0
-10 -4 -10 -10z"/>
<path d="M1280 1810 c0 -5 5 -10 10 -10 6 0 10 5 10 10 0 6 -4 10 -10 10 -5 0
-10 -4 -10 -10z"/>
<path d="M620 1785 c0 -8 5 -15 10 -15 6 0 10 7 10 15 0 8 -4 15 -10 15 -5 0
-10 -7 -10 -15z"/>
<path d="M1220 1750 c0 -5 5 -10 10 -10 6 0 10 5 10 10 0 6 -4 10 -10 10 -5 0
-10 -4 -10 -10z"/>
<path d="M526 1731 c-4 -5 -2 -12 3 -15 5 -4 12 -2 15 3 4 5 2 12 -3 15 -5 4
-12 2 -15 -3z"/>
<path d="M1270 1690 c0 -5 5 -10 10 -10 6 0 10 5 10 10 0 6 -4 10 -10 10 -5 0
-10 -4 -10 -10z"/>
<path d="M580 1660 c0 -5 7 -10 15 -10 8 0 15 5 15 10 0 6 -7 10 -15 10 -8 0
-15 -4 -15 -10z"/>
<path d="M1240 1620 c0 -5 5 -10 10 -10 6 0 10 5 10 10 0 6 -4 10 -10 10 -5 0
-10 -4 -10 -10z"/>
<path d="M650 1570 c0 -5 5 -10 10 -10 6 0 10 5 10 10 0 6 -4 10 -10 10 -5 0
-10 -4 -10 -10z"/>
<path d="M1186 1511 c-4 -5 -2 -12 3 -15 5 -4 12 -2 15 3 4 5 2 12 -3 15 -5 4
-12 2 -15 -3z"/>
<path d="M940 1460 c0 -5 5 -10 10 -10 6 0 10 5 10 10 0 6 -4 10 -10 10 -5 0
-10 -4 -10 -10z"/>
<path d="M1000 1450 c0 -5 5 -10 10 -10 6 0 10 5 10 10 0 6 -4 10 -10 10 -5 0
-10 -4 -10 -10z"/>
<path d="M860 1440 c0 -5 5 -10 10 -10 6 0 10 5 10 10 0 6 -4 10 -10 10 -5 0
-10 -4 -10 -10z"/>
<path d="M765 1399 c-10 -15 3 -25 16 -12 7 7 7 13 1 17 -6 3 -14 1 -17 -5z"/>
<path d="M1020 2295 c0 -8 5 -15 10 -15 6 0 10 7 10 15 0 8 -4 15 -10 15 -5 0
-10 -7 -10 -15z"/>
<path d="M850 2260 c0 -5 5 -10 10 -10 6 0 10 5 10 10 0 6 -4 10 -10 10 -5 0
-10 -4 -10 -10z"/>
<path d="M2495 1510 c-4 -6 -11 -7 -17 -4 -7 4 -8 2 -4 -5 6 -9 11 -9 22 0 14
11 18 19 10 19 -3 0 -8 -5 -11 -10z"/>
<path d="M2430 1500 c-9 -6 -10 -10 -3 -10 6 0 15 5 18 10 8 12 4 12 -15 0z"/>
<path d="M2200 1450 c-13 -8 -13 -10 2 -10 9 0 20 5 23 10 8 13 -5 13 -25 0z"/>
<path d="M1170 1440 c0 -5 4 -10 9 -10 6 0 13 5 16 10 3 6 -1 10 -9 10 -9 0
-16 -4 -16 -10z"/>
<path d="M2245 1440 c-13 -6 -15 -9 -5 -9 8 0 22 4 30 9 18 12 2 12 -25 0z"/>
<path d="M1150 1590 c0 -5 5 -10 10 -10 6 0 10 5 10 10 0 6 -4 10 -10 10 -5 0
-10 -4 -10 -10z"/>
<path d="M720 1545 c0 -8 5 -15 10 -15 6 0 10 7 10 15 0 8 -4 15 -10 15 -5 0
-10 -7 -10 -15z"/>
<path d="M726 1498 c3 -5 10 -6 15 -3 13 9 11 12 -6 12 -8 0 -12 -4 -9 -9z"/>
<path d="M1796 1417 c3 -10 9 -15 12 -12 3 3 0 11 -7 18 -10 9 -11 8 -5 -6z"/>
<path d="M1815 1370 c3 -5 8 -10 11 -10 2 0 4 5 4 10 0 6 -5 10 -11 10 -5 0
-7 -4 -4 -10z"/>
<path d="M1830 1343 c0 -5 6 -17 14 -28 15 -21 16 -26 16 -52 0 -13 3 -14 11
-6 9 9 8 21 -5 47 -16 34 -36 56 -36 39z"/>
<path d="M1288 1463 c7 -3 16 -2 19 1 4 3 -2 6 -13 5 -11 0 -14 -3 -6 -6z"/>
<path d="M1685 1253 c4 -10 10 -26 12 -35 3 -10 9 -15 14 -12 5 3 2 18 -6 35
-17 31 -32 40 -20 12z"/>
<path d="M1846 968 c3 -5 10 -6 15 -3 13 9 11 12 -6 12 -8 0 -12 -4 -9 -9z"/>
<path d="M827 1353 c-13 -12 -7 -23 13 -23 11 0 20 7 20 15 0 15 -21 21 -33 8z"/>
<path d="M381 180 c-15 -46 -14 -50 14 -50 14 0 25 1 25 3 0 1 -6 19 -14 41
l-13 38 -12 -32z"/>
<path d="M1340 189 c0 -28 2 -30 32 -27 57 5 48 57 -9 58 -19 0 -23 -5 -23
-31z"/>
<path d="M2420 190 c0 -28 3 -31 28 -28 21 2 27 8 27 28 0 20 -6 26 -27 28
-25 3 -28 0 -28 -28z"/>
<path d="M420 1575 c7 -9 10 -18 6 -22 -3 -3 -6 -1 -6 5 0 7 -6 12 -14 12 -9
0 -12 -7 -9 -20 3 -10 10 -18 17 -17 6 1 11 -6 11 -15 0 -21 15 -37 16 -17 0
8 2 22 4 33 4 20 -14 56 -29 56 -4 0 -3 -7 4 -15z"/>
<path d="M1903 1409 c-2 -23 3 -25 10 -4 4 8 3 16 -1 19 -4 3 -9 -4 -9 -15z"/>
</g>
</svg>
